<?xml version="1.0" encoding="UTF-8" ?>
<!DOCTYPE svg PUBLIC "-//W3C//DTD SVG 1.1//EN" "http://www.w3.org/Graphics/SVG/1.1/DTD/svg11.dtd">
<svg width="833pt" height="620pt" viewBox="0 0 833 620" version="1.1" xmlns="http://www.w3.org/2000/svg">
<g id="#ffffffff">
</g>
<g id="#a70866ff">
<path fill="#a70866" opacity="1.00" d=" M 143.68 28.96 C 150.14 28.07 156.86 28.23 163.16 30.05 C 165.98 30.99 168.60 33.75 167.93 36.93 C 166.81 42.41 163.56 47.10 161.18 52.07 C 143.91 85.01 130.34 119.80 119.67 155.39 C 116.56 167.04 113.44 178.70 110.71 190.44 C 104.80 218.62 99.99 247.13 98.50 275.92 C 96.27 306.26 97.27 336.75 100.12 367.01 C 102.47 388.83 106.37 410.46 110.85 431.93 C 113.54 443.32 116.60 454.61 119.61 465.91 C 130.93 503.02 145.04 539.38 163.46 573.57 C 165.44 577.76 168.90 582.32 167.15 587.17 C 165.80 590.86 161.41 591.56 158.06 592.35 C 148.76 593.01 139.17 593.21 130.21 590.28 C 122.42 587.31 115.42 582.00 111.23 574.70 C 106.38 565.86 101.64 556.95 97.14 547.93 C 74.53 498.88 60.48 446.20 52.58 392.87 C 44.05 334.44 44.83 274.72 54.65 216.51 C 59.22 190.52 64.76 164.64 72.65 139.44 C 81.37 110.61 92.25 82.32 106.86 55.94 C 109.89 50.64 112.45 45.01 116.34 40.26 C 121.00 34.78 127.75 31.14 134.95 30.60 C 137.94 30.55 140.80 29.69 143.68 28.96 Z" />
</g>
<g id="#ffc100ff">
<path fill="#ffc100" opacity="1.00" d=" M 676.50 30.83 C 680.99 28.56 686.15 29.57 690.98 29.37 C 695.72 29.23 700.37 30.19 705.07 30.62 C 714.81 31.86 724.07 37.32 729.34 45.69 C 751.21 82.48 765.68 123.18 776.40 164.48 C 786.71 205.55 793.43 247.62 794.86 289.98 C 797.09 342.18 791.28 394.55 779.50 445.40 C 775.04 465.17 769.11 484.57 762.71 503.79 C 755.65 523.32 748.11 542.76 738.14 561.02 C 733.82 568.58 730.66 577.12 723.99 583.03 C 720.91 585.84 717.16 587.81 713.45 589.65 C 704.74 593.13 695.17 592.81 685.97 592.50 C 682.28 592.47 678.45 591.73 675.39 589.59 C 672.65 587.42 673.25 583.38 674.83 580.70 C 682.50 566.15 689.96 551.47 696.40 536.32 C 713.22 496.64 726.23 455.29 734.22 412.93 C 738.50 389.14 741.97 365.17 743.48 341.03 C 747.08 289.94 742.11 238.46 731.17 188.49 C 719.80 137.86 700.85 88.94 675.32 43.76 C 672.95 39.90 671.41 33.24 676.50 30.83 Z" />
</g>
<g id="#00afeaff">
<path fill="#00afea" opacity="1.00" d=" M 221.15 167.11 C 229.03 159.93 239.33 153.78 250.42 155.55 C 256.73 156.23 261.36 161.62 263.36 167.31 C 265.63 175.64 266.06 184.42 264.51 192.92 C 264.10 200.48 261.87 207.77 261.34 215.32 C 276.00 224.20 290.88 232.69 305.81 241.12 C 319.05 248.07 331.24 256.84 342.83 266.25 C 358.46 279.20 370.09 297.59 372.69 317.92 C 375.52 331.83 373.77 346.25 369.70 359.73 C 367.74 367.10 363.84 373.70 360.93 380.68 C 377.90 378.88 392.38 367.86 403.10 355.15 C 405.42 371.58 411.29 387.58 421.06 401.06 C 411.71 410.20 400.65 417.47 388.70 422.72 C 383.90 424.63 378.84 425.74 373.91 427.25 C 358.40 430.65 342.25 428.11 327.27 423.49 C 323.77 422.40 320.65 420.15 317.00 419.61 C 313.19 420.76 309.88 423.16 306.05 424.27 C 295.44 427.66 284.16 429.60 273.05 428.05 C 250.77 426.54 228.30 413.76 219.28 392.70 C 215.71 384.25 214.90 374.61 217.69 365.83 C 219.49 361.15 223.96 357.88 228.92 357.43 C 236.11 356.88 243.26 358.55 249.99 360.97 C 264.67 366.18 279.06 372.14 293.77 377.25 C 294.18 377.29 295.01 377.37 295.43 377.41 C 301.27 373.01 307.66 368.87 311.31 362.29 C 321.32 347.82 319.81 327.81 310.71 313.29 C 308.07 308.72 304.22 305.05 300.78 301.11 C 293.44 293.62 284.45 288.09 275.84 282.20 C 267.41 276.38 258.36 271.54 249.58 266.27 C 248.62 265.73 247.56 265.42 246.53 265.07 C 234.28 302.54 215.47 337.63 192.81 369.80 C 190.20 373.64 187.74 377.66 184.18 380.73 C 176.87 380.86 173.22 373.55 169.67 368.34 C 165.19 360.27 160.47 351.34 161.47 341.82 C 162.21 334.80 166.72 329.15 170.61 323.57 C 185.50 302.61 195.82 278.87 205.04 255.00 C 207.27 248.37 209.71 241.79 211.46 235.02 C 210.32 231.31 207.90 228.12 206.73 224.41 C 202.70 212.92 203.14 199.91 207.81 188.68 C 210.65 180.62 215.70 173.59 221.15 167.11 Z" />
</g>
<g id="#a8c215ff">
<path fill="#a8c215" opacity="1.00" d=" M 565.33 197.31 C 567.24 192.81 572.65 191.71 577.02 191.74 C 587.37 193.32 598.07 198.04 603.61 207.37 C 608.25 215.83 607.39 225.74 606.37 234.97 C 604.39 257.62 601.83 280.26 601.49 303.02 C 601.41 340.44 604.26 377.77 607.06 415.05 C 620.98 408.10 632.06 396.74 642.00 384.99 C 648.52 377.44 654.08 369.13 660.53 361.54 C 662.37 359.26 665.86 357.53 668.55 359.45 C 675.56 363.82 678.72 371.97 681.82 379.25 C 686.03 388.40 685.17 399.51 680.10 408.14 C 671.07 420.27 661.11 431.73 650.12 442.12 C 638.34 452.70 625.26 462.83 609.70 466.92 C 608.92 477.55 609.41 488.27 607.80 498.85 C 605.76 516.38 600.80 533.73 592.16 549.17 C 588.02 555.86 583.20 562.12 577.95 567.98 C 565.98 579.61 551.82 589.18 536.04 594.80 C 518.08 601.10 498.89 602.66 479.99 602.43 C 456.66 601.43 433.12 596.83 412.29 585.95 C 398.57 578.14 385.86 566.85 380.47 551.62 C 377.15 541.85 375.56 531.07 378.23 520.94 C 380.52 510.59 387.88 502.39 395.48 495.44 C 406.26 486.35 418.69 479.45 431.49 473.66 C 451.40 464.86 472.34 458.72 493.25 452.83 C 516.21 446.70 539.38 441.04 561.50 432.22 C 561.28 418.98 559.07 405.92 557.60 392.79 C 551.23 402.80 543.10 411.70 533.18 418.26 C 521.50 426.04 508.09 431.74 493.98 432.74 C 476.01 435.31 457.03 431.29 441.99 421.03 C 433.82 415.79 426.82 408.83 421.06 401.06 C 411.29 387.58 405.42 371.58 403.10 355.15 C 399.94 335.44 401.87 315.18 407.48 296.08 C 412.48 278.20 420.97 261.19 432.80 246.85 C 446.09 229.61 464.27 215.84 485.04 209.04 C 496.58 205.40 508.95 203.50 521.00 205.37 C 522.98 205.53 524.96 205.62 526.94 205.77 C 538.49 207.92 549.54 212.14 559.84 217.78 C 561.93 211.03 562.61 203.86 565.33 197.31 M 499.58 256.35 C 481.57 264.45 468.25 280.73 461.09 298.86 C 455.48 314.16 453.33 330.93 455.84 347.08 C 457.39 357.94 463.06 368.56 472.38 374.63 C 479.73 379.26 488.75 379.29 497.09 378.21 C 508.30 376.01 518.58 369.54 525.59 360.53 C 531.99 352.89 537.20 344.29 541.18 335.16 C 551.23 313.01 555.45 288.74 557.53 264.66 C 542.18 250.68 518.24 247.26 499.58 256.35 M 541.40 489.04 C 517.80 494.89 494.15 500.52 470.75 507.12 C 459.37 511.14 447.54 514.63 437.53 521.59 C 434.72 523.67 431.96 526.14 430.55 529.42 C 428.48 535.04 431.50 541.56 436.56 544.46 C 450.04 553.13 466.23 556.34 482.00 557.40 C 486.66 557.58 491.31 557.24 495.92 556.56 C 515.45 554.95 534.32 544.92 545.94 529.03 C 556.11 515.61 560.45 498.87 562.82 482.46 C 556.01 485.54 548.56 486.99 541.40 489.04 Z" />
</g>
</svg>
