<?xml version="1.0" encoding="utf-8"?>
<!-- Generator: Adobe Illustrator 21.1.0, SVG Export Plug-In . SVG Version: 6.00 Build 0)  -->
<svg version="1.1" id="icon" xmlns="http://www.w3.org/2000/svg" xmlns:xlink="http://www.w3.org/1999/xlink" x="0px" y="0px"
	 width="16px" height="16px" viewBox="0 0 16 16" style="enable-background:new 0 0 16 16;" xml:space="preserve">
<style type="text/css">
	.st0{fill:#A70866;}
	.st1{fill:#FFC100;}
	.st2{fill:#00AFEA;}
	.st3{fill:#A8C215;}
</style>
<g id="_x23_ffffffff">
</g>
<g id="_x23_a70866ff">
	<path class="st0" d="M2.0728376,1.8772471C2.210902,1.8582258,2.3545229,1.8616453,2.4891677,1.9005427
		c0.0602694,0.0200899,0.1162646,0.079077,0.1019449,0.1470406C2.5671759,2.1647027,2.4977164,2.2649381,2.4468505,2.3711579
		C2.0777535,3.0751569,1.7877331,3.8186946,1.5596921,4.57933C1.4932246,4.8283153,1.4265436,5.0775151,1.3681976,5.3284245
		C1.241888,5.9306917,1.1390879,6.5400124,1.1072434,7.1553173c-0.04766,0.6484313-0.0262879,1.3000689,0.0346229,1.9467907
		c0.0502245,0.4663401,0.133576,0.9286203,0.2293233,1.3874807c0.0574912,0.2434292,0.12289,0.4847202,0.1872202,0.7262259
		c0.2419327,0.7931213,0.5434941,1.5702133,0.9371697,2.3009272c0.0423167,0.08955,0.1162641,0.187007,0.0788629,0.2906609
		c-0.0288522,0.0788641-0.1226759,0.0938244-0.194273,0.1107082c-0.198761,0.0141058-0.40372,0.0183811-0.5952145-0.044239
		c-0.1664894-0.0634766-0.3160945-0.1769629-0.4056438-0.3329792c-0.1036551-0.1889305-0.2049592-0.3793554-0.3011339-0.5721331
		C0.5949526,11.920455,0.2946737,10.79457,0.1258336,9.6547918C-0.056471,8.4060163-0.0398007,7.1296706,0.170074,5.8855968
		c0.0976708-0.5554624,0.2160726-1.1085744,0.384699-1.6471529c0.1863653-0.6161594,0.4188944-1.220778,0.7311417-1.7845757
		C1.3506724,2.3405955,1.405385,2.2202704,1.4885228,2.1187525c0.0995944-0.1171196,0.2438564-0.1949141,0.397736-0.2064551
		C1.9501617,1.9112288,2.011286,1.8928487,2.0728376,1.8772471z"/>
</g>
<g id="_x23_ffc100ff">
	<path class="st1" d="M13.4603548,1.917213c0.0959606-0.0485147,0.2062416-0.0269289,0.3094683-0.0312033
		c0.1013041-0.0029922,0.2006855,0.0175252,0.3011351,0.0267152c0.2081642,0.0265015,0.4060707,0.1431936,0.5187025,0.3220786
		c0.4674091,0.7862821,0.7766638,1.6561291,1.0057745,2.5387995c0.2203465,0.8777547,0.3639669,1.7768817,0.3945293,2.6822071
		c0.0476599,1.1156268-0.0765114,2.2348866-0.3282766,3.3216615c-0.0953207,0.4225283-0.2220573,0.8371477-0.3588381,1.247921
		c-0.1508875,0.4173985-0.3120346,0.8328733-0.5251141,1.2231293c-0.0923281,0.1615734-0.1598654,0.3440914-0.3024168,0.4704018
		c-0.0658264,0.0600557-0.1459723,0.1021576-0.2252626,0.1414833c-0.1861515,0.0743752-0.3906832,0.0675354-0.5873079,0.0609102
		c-0.0788612-0.0006418-0.160717-0.0164566-0.2261162-0.0621929c-0.0585594-0.0463781-0.0457373-0.1327209-0.0119686-0.1899986
		c0.1639242-0.3109646,0.3233614-0.6247091,0.4609976-0.9484968c0.359479-0.8480473,0.6375313-1.7317867,0.8082943-2.6371117
		c0.0914736-0.5084429,0.1656342-1.0207338,0.1979065-1.5366583c0.0769405-1.0919042-0.0292797-2.192143-0.2630911-3.2601099
		c-0.243001-1.0820732-0.6480045-2.1275992-1.193635-3.0931938C13.3844843,2.1110585,13.3515701,1.96872,13.4603548,1.917213z"/>
</g>
<g id="_x23_00afeaff">
	<path class="st2" d="M3.7285392,4.8298116c0.1684129-0.1534524,0.3885462-0.2848907,0.6255634-0.2470622
		c0.1348586,0.014533,0.2338114,0.1297288,0.2765555,0.2513366c0.0485153,0.1780305,0.0577054,0.3656778,0.0245786,0.5473413
		c-0.0087628,0.1615734-0.0564227,0.3173766-0.06775,0.4787369c0.3133159,0.1897845,0.6313338,0.3712339,0.9504204,0.5514011
		C5.8208742,6.5601025,6.0814009,6.7475362,6.3291044,6.948648c0.3340468,0.2767701,0.5826054,0.6698036,0.6381731,1.1043
		c0.060483,0.297286,0.0230818,0.6054735-0.0639029,0.8935699C6.861485,9.1040316,6.7781339,9.2450876,6.7159405,9.3942652
		c0.3626857-0.0384703,0.6721549-0.2739916,0.9012647-0.5456314C7.6667886,9.1997776,7.792243,9.5417328,8.001049,9.8298302
		c-0.1998301,0.1953411-0.4362059,0.3507166-0.6916032,0.4629211c-0.1025867,0.0408201-0.2107296,0.0645437-0.3160944,0.0968151
		c-0.3314824,0.0726652-0.6766429,0.0183802-0.996798-0.0803595c-0.0748024-0.0232954-0.1414838-0.0713825-0.219492-0.0829239
		c-0.0814281,0.0245781-0.1521697,0.0758715-0.2340255,0.0995941c-0.2267585,0.0724525-0.4678364,0.1139145-0.7052813,0.0807867
		c-0.4761715-0.0322714-0.9564042-0.3054075-1.1491811-0.7555056C3.6122751,9.4705639,3.5949633,9.2645359,3.6545918,9.0768881
		c0.03847-0.1000214,0.1340036-0.1699085,0.2400093-0.1795263C4.0482669,8.8856077,4.2010779,8.921299,4.344913,8.9730196
		c0.3137436,0.1113491,0.6212883,0.2387276,0.9356728,0.3479385C5.2893486,9.3218136,5.3070879,9.3235235,5.3160639,9.324378
		C5.440877,9.230341,5.5774455,9.14186,5.6554537,9.0012312c0.2139359-0.3092556,0.1816635-0.7369127-0.0128231-1.0472364
		c-0.0564222-0.0976706-0.1387053-0.1761069-0.2122254-0.260313C5.2735333,7.5336041,5.081398,7.4154162,4.8973832,7.2895346
		C4.717216,7.1651483,4.5237975,7.061707,4.3361502,6.9490752C4.3156328,6.9375348,4.2929783,6.9309096,4.2709651,6.923429
		C4.0091558,7.7242441,3.6071455,8.4741936,3.1228523,9.1617355C3.067071,9.2438049,3.0144956,9.3297215,2.9384103,9.3953342
		c-0.1562304,0.0027771-0.2342386-0.1534529-0.3101099-0.264802c-0.0957472-0.172473-0.196624-0.363327-0.1752517-0.5667896
		c0.0158155-0.150033,0.1122038-0.2707853,0.1953416-0.3900414C2.9666219,7.72574,3.1871827,7.2183647,3.3842337,6.7082114
		c0.0476601-0.1416979,0.0998082-0.2823267,0.1372097-0.4270158C3.4970791,6.2019048,3.445358,6.1337276,3.4203527,6.0544367
		c-0.0861297-0.2455664-0.076726-0.5236177,0.023082-0.7636275C3.5041316,5.1185493,3.612061,4.9683032,3.7285392,4.8298116z"/>
</g>
<g id="_x23_a8c215ff">
	<path class="st3" d="M11.0844116,5.4752512c0.0408201-0.0961747,0.1564445-0.1196842,0.2498407-0.1190429
		c0.2212009,0.0337682,0.4498835,0.1346445,0.568285,0.3340468c0.0991669,0.1808085,0.0807877,0.3926067,0.0589876,0.5898719
		c-0.0423164,0.4840794-0.0970297,0.9679456-0.1042967,1.4543753c-0.0017099,0.799747,0.0592012,1.5975699,0.1190434,2.3943238
		c0.2975006-0.1485367,0.5343046-0.391324,0.7467432-0.6424475c0.1393471-0.1613598,0.2581768-0.3389616,0.3960276-0.5011768
		c0.0393238-0.048728,0.1139126-0.0857029,0.1714039-0.0446672c0.1498184,0.0933962,0.2173538,0.2675791,0.2836084,0.4231682
		c0.0899773,0.1955557,0.0715961,0.4330006-0.0367603,0.6174421c-0.1929903,0.259244-0.4058571,0.5041695-0.6407375,0.7262259
		c-0.2517633,0.2261181-0.531311,0.4426174-0.863862,0.5300303c-0.0166712,0.2271852-0.0061989,0.456295-0.0406075,0.6824131
		c-0.0435991,0.3746538-0.1496058,0.7454605-0.3342619,1.0754471c-0.088479,0.1429796-0.191493,0.2767696-0.3036976,0.40201
		c-0.255825,0.248558-0.5584545,0.4530897-0.8957081,0.5732012c-0.3838434,0.1346445-0.7939749,0.167985-1.1979094,0.1630697
		c-0.4986124-0.0213718-1.0017128-0.1196833-1.4468951-0.352212c-0.2932262-0.1669168-0.564867-0.4082098-0.6800623-0.7337074
		c-0.0709558-0.208806-0.1049376-0.4391975-0.0478735-0.6556978c0.0489416-0.2212019,0.2062411-0.3964529,0.3686695-0.5449905
		c0.230392-0.194272,0.496048-0.3417406,0.7696118-0.4654856c0.4255199-0.1880751,0.8730526-0.3192997,1.3199444-0.4451818
		c0.4907055-0.131011,0.985898-0.2519779,1.4586506-0.4404802c-0.0047016-0.2829676-0.0519342-0.562088-0.0833521-0.8427048
		c-0.1361408,0.2139349-0.3098965,0.4041481-0.5219078,0.5443497c-0.2496271,0.166275-0.5362272,0.2880964-0.8377886,0.3094683
		c-0.384058,0.0549269-0.7897015-0.0309896-1.1111393-0.250268c-0.1746101-0.11199-0.3242149-0.2607403-0.447319-0.4268017
		C7.792243,9.5417328,7.6667886,9.1997776,7.6172051,8.8486338c-0.0675364-0.4212456-0.026288-0.8542457,0.0936103-1.262454
		c0.1068606-0.382134,0.2883101-0.7456746,0.5411425-1.0521517c0.2840366-0.3684559,0.6725817-0.6627507,1.1164827-0.8080816
		c0.2466345-0.0777946,0.5110083-0.1184015,0.7685423-0.0784359c0.0423164,0.0034199,0.0846348,0.005343,0.1269512,0.0085492
		c0.2468481,0.0459499,0.4830103,0.1361403,0.7031441,0.2566795C11.0117455,5.768477,11.0262785,5.6152387,11.0844116,5.4752512
		 M9.6791916,6.7370639c-0.3849125,0.1731148-0.66959,0.5210533-0.8226147,0.9085302
		C8.7366791,7.9725885,8.6907282,8.3309994,8.7443724,8.6761599c0.0331278,0.2321024,0.1543074,0.459074,0.3534966,0.5888033
		C9.2549543,9.3639164,9.447731,9.3645582,9.6259747,9.3414755c0.2395821-0.0470181,0.4592886-0.1852961,0.609107-0.3778601
		c0.1367817-0.1632824,0.2481308-0.3470831,0.3331919-0.5422115c0.2147894-0.473393,0.3049812-0.9920959,0.3494358-1.5067372
		C10.5896454,6.6158834,10.0779963,6.5427904,9.6791916,6.7370639 M10.5729761,11.7101526
		c-0.504384,0.1250277-1.0098352,0.2453527-1.509944,0.3864088c-0.2432156,0.0859165-0.496048,0.1605053-0.7099838,0.3092556
		c-0.0600557,0.0444536-0.1190434,0.0972433-0.1491776,0.1673431c-0.04424,0.1201115,0.0203037,0.2594585,0.1284466,0.3214388
		c0.2880974,0.1852961,0.6341124,0.2539015,0.9711514,0.276556c0.0995941,0.0038462,0.1989746-0.0034208,0.2975006-0.0179539
		c0.4173985-0.0344086,0.8206911-0.2487717,1.0690355-0.5883751c0.2173548-0.2868147,0.3101101-0.6445847,0.3607626-0.9953022
		C10.8852234,11.6353502,10.7259998,11.6663399,10.5729761,11.7101526z"/>
</g>
</svg>
